<?xml version="1.0" encoding="utf-8"?>
<!-- Generator: Adobe Illustrator 23.0.5, SVG Export Plug-In . SVG Version: 6.00 Build 0)  -->
<svg version="1.1" id="Слой_1" xmlns="http://www.w3.org/2000/svg" xmlns:xlink="http://www.w3.org/1999/xlink" x="0px" y="0px"
	 viewBox="0 0 194.2 194.7" style="enable-background:new 0 0 194.2 194.7;" xml:space="preserve">
<style type="text/css">
	.st0{fill:#591C00;}
	.st1{fill:#FFFFFF;}
	.st2{fill:#8E4301;}
	.st3{fill:#FF0000;}
	.st4{fill:#FFFF00;}
	.st5{fill:#00FFFF;}
	.st6{fill:#00FF00;}
</style>
<title>Ресурс 2</title>
<polygon class="st0" points="98.1,52.6 45.2,106.6 45.1,106.7 44.1,106.7 44.2,106.6 97.7,52 98.1,52.5 "/>
<path class="st1" d="M49.1,148.6l0.3,0.3l0,0l1.7-0.3H49.1z M62.5,155.3l-1.2,0.1l-1.3,0.1l-1,0.1l-1.9,0.2H57l-0.6,0.1h-0.1
	l0.1,0.1h0.1l0,0l1.5-0.2l2.8-0.3c0.7-0.1,1.4-0.1,2.1-0.2h0.3L62.5,155.3z M66.8,154.9L66,155c0.9-0.1,1.8-0.2,2.7-0.2
	C68.1,154.8,67.5,154.9,66.8,154.9z M70.6,154.6c-0.3,0-0.6,0-1,0.1c0.6,0,1.2-0.1,1.8-0.1H70.6z M91.5,153.6
	c-4.5,0.1-9,0.3-13.5,0.5c-1.2,0.1-2.4,0.2-3.6,0.3c0.5,0,1.1-0.1,1.6-0.1c5.7-0.3,11.5-0.5,17.4-0.7H91.5z M134.1,105.7v43h1v-43
	H134.1z M137.5,155.9H137c0.2,0,0.4,0,0.7,0.1l0,0c0.1,0,0.2,0,0.3,0h0.3L137.5,155.9z M138.4,156h-0.1l0.5,0.1h0.4l1.3,0.1l0.1-0.1
	L138.4,156z M145.1,148.7c0.9,0.1,1.7,0.3,2.6,0.5l0.5-0.5H145.1z M141.5,96.6L98.7,52l-0.5,0.5l51,53.1h1L141.5,96.6z"/>
<path class="st0" d="M56.5,156L56.5,156l-0.2-0.1l0,0L56.5,156L56.5,156L56.5,156z"/>
<polygon class="st0" points="150.1,105.7 149.1,105.7 149,105.6 98.1,52.6 98.7,52 150,105.6 "/>
<path class="st1" d="M48.1,148.6l0.5,0.5l0,0l0.8-0.2l1.7-0.3H48.1z M97.7,52l-53.6,54.6h1l53-54.1l0,0L97.7,52z M124.2,154.6
	c-1.6-0.1-3.1-0.2-4.7-0.3c-0.5,0-0.9,0-1.4-0.1c-0.1,0-0.1,0-0.2,0c-1.5-0.1-3-0.2-4.5-0.2h-0.1h-0.2l-1.9-0.1h-0.6l-2.9-0.1
	c-0.3,0-0.6,0-0.9,0c-0.8,0-1.5,0-2.3-0.1c-0.3,0-0.6,0-0.8,0H102l5.4,0.1c6.2,0.2,12.4,0.5,18.6,1l2.6,0.2
	C127.2,154.9,125.7,154.7,124.2,154.6z M138.4,156h-0.1l0.5,0.1h0.4l1.3,0.1l0.1-0.1L138.4,156z M145.1,148.7
	c0.9,0.1,1.7,0.3,2.6,0.5l0.5-0.5H145.1z"/>
<path class="st1" d="M51,148.6l-1.6,0.3h-0.1l-0.7,0.2l0,0l0.8-0.2L51,148.6L51,148.6z M107.6,153.6l-5.4-0.1H91.5
	c-4.5,0.1-9,0.3-13.5,0.5c-1.9,0.1-3.8,0.3-5.7,0.4l-1.7,0.1c-1.3,0.1-2.5,0.2-3.8,0.3l-3.2,0.3c-1,0.1-1.9,0.2-2.8,0.3l-2.8,0.3
	l-0.9,0.1l2-0.2c0.3,0,0.6-0.1,0.9-0.1l1.3-0.1c0.4,0,0.9-0.1,1.3-0.1h0.3h0.3l2.6-0.2c1-0.1,1.9-0.2,2.9-0.3c0.3,0,0.6,0,0.9-0.1
	c0.8-0.1,1.6-0.1,2.3-0.2c0.1,0,0.2,0,0.3,0c0.6,0,1.2-0.1,1.8-0.1c0.7,0,1.3-0.1,2-0.1c5.8-0.3,11.5-0.5,17.4-0.6h10.2
	c0.3,0,0.6,0,0.8,0c0.8,0,1.5,0,2.3,0.1c0.3,0,0.6,0,0.9,0h0.2l2.9,0.1h0.6c0.6,0,1.3,0,1.9,0.1h0.1c1.5,0.1,3,0.1,4.5,0.2
	c0.1,0,0.1,0,0.2,0c0.5,0,1.1,0.1,1.6,0.1c1.6,0.1,3.1,0.2,4.7,0.3s3,0.2,4.5,0.4l3.7,0.3h0.2c0.5,0.1,1,0.1,1.5,0.1
	C125.5,154.5,116.6,153.9,107.6,153.6z M134.1,105.7v43h1v-43H134.1z M136.1,155.6L136.1,155.6h0.2H136.1z M147.6,149.1
	c-0.7-0.2-1.4-0.3-2.1-0.4h-0.4c0.9,0.1,1.7,0.3,2.6,0.5l0.1-0.1C147.7,149.1,147.7,149.1,147.6,149.1z M136.5,106.6l15,0.5
	l-1.4-1.5l-8.5-9l-44-46.5l-56,58H60v39.5h-0.5H60v-41H45.2l52.9-54l50.9,53h-13.8v42l1.4,0.1l-1.1-0.1L136.5,106.6z"/>
<path class="st1" d="M147.8,149.1L147.8,149.1c-1-0.1-1.8-0.3-2.7-0.4h0.4c-0.2,0-0.3-0.1-0.5-0.1l-8.4-0.9l-1.4-0.1v-42H149
	l-50.9-53l-52.9,54h14.9v41h-0.5l-8.5,1h0.1l-1.7,0.3l-0.8,0.2l0,0h-0.1C33.1,151.9,18,156,3.3,161.4c17.2-2.5,34.5-4.3,52.1-5.4
	h0.3l0.6-0.1h0.1l0.6-0.1h0.1l0.9-0.1l2.8-0.3c0.9-0.1,1.8-0.2,2.8-0.3l3.2-0.3c1.3-0.1,2.5-0.2,3.8-0.3l1.7-0.1
	c1.9-0.1,3.8-0.3,5.7-0.4c4.5-0.2,9-0.4,13.5-0.5h10.7l5.4,0.1c9,0.3,17.9,0.9,26.7,1.8c0.6,0.1,1.1,0.1,1.7,0.2h0.1h0.2l0.5,0.1
	l1.6,0.2l2.4,0.1c18.1,1.2,35.9,3.1,53.6,5.8C179.2,156.2,163.6,152,147.8,149.1z M135.1,148.7h-1v-43h1V148.7z"/>
<path class="st2" d="M191.3,104.5l-44.1,44.1l-10.6-0.9l-1.4-0.1v-42h15l-8.7-9L98.7,52l-0.5,0.5L97.7,52l-53.6,54.6h16v41h-0.5
	l-10.5,1L2.5,102c-3.3-3.3-3.3-8.6,0-11.9L90.2,2.4c2.7-3,7.3-3.3,10.3-0.6c0.2,0.2,0.4,0.4,0.6,0.6l90.2,90.2
	C194.5,95.9,194.5,101.2,191.3,104.5z"/>
<path class="st2" d="M139.5,156.2l-35.9,35.9c-2.7,3-7.3,3.3-10.3,0.6c-0.2-0.2-0.4-0.4-0.6-0.6l-36.1-36V156v-0.1l0.5-0.1h0.1
	l0.9-0.1l2.8-0.3c0.9-0.1,1.8-0.2,2.8-0.3l3.2-0.3c1.3-0.1,2.5-0.2,3.8-0.3l1.7-0.1c1.9-0.1,3.8-0.3,5.7-0.4c4.5-0.2,9-0.4,13.5-0.5
	h10.7l5.4,0.1c9,0.3,17.9,0.9,26.7,1.8c0.6,0.1,1.1,0.1,1.7,0.2h0.1h0.2l1.2,0.2h0.1l0,0l0.7,0.1l0.8,0.1L139.5,156.2z"/>
<g>
	<rect x="71.1" y="107.6" class="st3" width="26.4" height="16.6"/>
	<rect x="97.1" y="107.6" class="st4" width="26.4" height="16.6"/>
	<rect x="71.1" y="124.1" class="st5" width="26.4" height="16.6"/>
	<rect x="97.1" y="124.1" class="st6" width="26.4" height="16.6"/>
</g>
</svg>
